<svg xmlns="http://www.w3.org/2000/svg" width="1600" height="900" viewBox="0 0 1600 900">
  <defs>
    <linearGradient id="sky" x1="0" y1="0" x2="0" y2="1">
      <stop offset="0%" stop-color="#93c8f3"/>
      <stop offset="100%" stop-color="#dff2ff"/>
    </linearGradient>
    <linearGradient id="ground" x1="0" y1="0" x2="0" y2="1">
      <stop offset="0%" stop-color="#545a64"/>
      <stop offset="100%" stop-color="#767d87"/>
    </linearGradient>
    <linearGradient id="wall" x1="0" y1="0" x2="1" y2="1">
      <stop offset="0%" stop-color="#bf6e4f"/>
      <stop offset="100%" stop-color="#a34f3b"/>
    </linearGradient>
    <filter id="softShadow" x="-20%" y="-20%" width="140%" height="140%">
      <feDropShadow dx="0" dy="10" stdDeviation="16" flood-color="#1c2230" flood-opacity="0.3"/>
    </filter>
  </defs>

  <rect width="1600" height="900" fill="url(#sky)"/>

  <!-- Distant houses and trees -->
  <g opacity="0.95">
    <rect x="90" y="355" width="180" height="95" fill="#cfc5b8"/>
    <polygon points="80,380 180,310 280,380" fill="#8c5a40"/>
    <circle cx="250" cy="345" r="42" fill="#5f9a64"/>
    <circle cx="285" cy="325" r="48" fill="#538a57"/>

    <rect x="1220" y="350" width="205" height="110" fill="#c8bda9"/>
    <polygon points="1210,382 1322,308 1440,382" fill="#7f5342"/>
    <circle cx="1390" cy="342" r="50" fill="#59935d"/>
    <circle cx="1435" cy="328" r="60" fill="#4f8453"/>
  </g>

  <!-- Ground / driveway -->
  <rect y="500" width="1600" height="400" fill="url(#ground)"/>
  <path d="M120 820 C360 730, 760 685, 1560 740 L1600 900 L0 900 Z" fill="#6d737d"/>
  <path d="M190 808 C420 735, 765 696, 1540 746" fill="none" stroke="#8a9099" stroke-width="3" stroke-dasharray="8 12" opacity="0.55"/>
  <path d="M235 836 C505 765, 840 730, 1510 776" fill="none" stroke="#b5b9bf" stroke-width="3" stroke-dasharray="5 18" opacity="0.3"/>

  <!-- Boundary wall shadow -->
  <polygon points="355,760 1275,712 1188,400 430,430" fill="#612f24" opacity="0.16"/>

  <!-- Wall -->
  <g filter="url(#softShadow)">
    <polygon points="430,430 1188,400 1275,712 355,760" fill="url(#wall)"/>

    <!-- Cap stones -->
    <g fill="#e0b48d">
      <rect x="438" y="412" width="70" height="16" transform="rotate(-2 438 412)"/>
      <rect x="508" y="409" width="68" height="15" transform="rotate(-2 508 409)"/>
      <rect x="577" y="407" width="68" height="15" transform="rotate(-2 577 407)"/>
      <rect x="646" y="404" width="68" height="15" transform="rotate(-2 646 404)"/>
      <rect x="715" y="401" width="68" height="15" transform="rotate(-2 715 401)"/>
      <rect x="784" y="399" width="68" height="15" transform="rotate(-2 784 399)"/>
      <rect x="853" y="396" width="68" height="15" transform="rotate(-2 853 396)"/>
      <rect x="922" y="393" width="68" height="15" transform="rotate(-2 922 393)"/>
      <rect x="991" y="390" width="68" height="15" transform="rotate(-2 991 390)"/>
      <rect x="1060" y="387" width="68" height="15" transform="rotate(-2 1060 387)"/>
      <rect x="1129" y="384" width="68" height="15" transform="rotate(-2 1129 384)"/>
    </g>

    <!-- Brick rows -->
    <g opacity="0.98">
      <!-- rows generated manually for a believable wall -->
      <g fill="#a9533d">
        <rect x="420" y="438" width="88" height="22"/><rect x="508" y="436" width="88" height="22"/><rect x="596" y="434" width="88" height="22"/><rect x="684" y="432" width="88" height="22"/><rect x="772" y="430" width="88" height="22"/><rect x="860" y="428" width="88" height="22"/><rect x="948" y="426" width="88" height="22"/><rect x="1036" y="424" width="88" height="22"/><rect x="1124" y="422" width="88" height="22"/><rect x="1212" y="420" width="56" height="22"/>
        <rect x="382" y="462" width="88" height="22"/><rect x="470" y="460" width="88" height="22"/><rect x="558" y="458" width="88" height="22"/><rect x="646" y="456" width="88" height="22"/><rect x="734" y="454" width="88" height="22"/><rect x="822" y="452" width="88" height="22"/><rect x="910" y="450" width="88" height="22"/><rect x="998" y="448" width="88" height="22"/><rect x="1086" y="446" width="88" height="22"/><rect x="1174" y="444" width="88" height="22"/>
        <rect x="398" y="486" width="88" height="22"/><rect x="486" y="484" width="88" height="22"/><rect x="574" y="482" width="88" height="22"/><rect x="662" y="480" width="88" height="22"/><rect x="750" y="478" width="88" height="22"/><rect x="838" y="476" width="88" height="22"/><rect x="926" y="474" width="88" height="22"/><rect x="1014" y="472" width="88" height="22"/><rect x="1102" y="470" width="88" height="22"/><rect x="1190" y="468" width="76" height="22"/>
        <rect x="365" y="510" width="88" height="22"/><rect x="453" y="508" width="88" height="22"/><rect x="541" y="506" width="88" height="22"/><rect x="629" y="504" width="88" height="22"/><rect x="717" y="502" width="88" height="22"/><rect x="805" y="500" width="88" height="22"/><rect x="893" y="498" width="88" height="22"/><rect x="981" y="496" width="88" height="22"/><rect x="1069" y="494" width="88" height="22"/><rect x="1157" y="492" width="88" height="22"/>
        <rect x="383" y="534" width="88" height="22"/><rect x="471" y="532" width="88" height="22"/><rect x="559" y="530" width="88" height="22"/><rect x="647" y="528" width="88" height="22"/><rect x="735" y="526" width="88" height="22"/><rect x="823" y="524" width="88" height="22"/><rect x="911" y="522" width="88" height="22"/><rect x="999" y="520" width="88" height="22"/><rect x="1087" y="518" width="88" height="22"/><rect x="1175" y="516" width="88" height="22"/>
        <rect x="400" y="558" width="88" height="22"/><rect x="488" y="556" width="88" height="22"/><rect x="576" y="554" width="88" height="22"/><rect x="664" y="552" width="88" height="22"/><rect x="752" y="550" width="88" height="22"/><rect x="840" y="548" width="88" height="22"/><rect x="928" y="546" width="88" height="22"/><rect x="1016" y="544" width="88" height="22"/><rect x="1104" y="542" width="88" height="22"/><rect x="1192" y="540" width="74" height="22"/>
        <rect x="368" y="582" width="88" height="22"/><rect x="456" y="580" width="88" height="22"/><rect x="544" y="578" width="88" height="22"/><rect x="632" y="576" width="88" height="22"/><rect x="720" y="574" width="88" height="22"/><rect x="808" y="572" width="88" height="22"/><rect x="896" y="570" width="88" height="22"/><rect x="984" y="568" width="88" height="22"/><rect x="1072" y="566" width="88" height="22"/><rect x="1160" y="564" width="88" height="22"/>
        <rect x="386" y="606" width="88" height="22"/><rect x="474" y="604" width="88" height="22"/><rect x="562" y="602" width="88" height="22"/><rect x="650" y="600" width="88" height="22"/><rect x="738" y="598" width="88" height="22"/><rect x="826" y="596" width="88" height="22"/><rect x="914" y="594" width="88" height="22"/><rect x="1002" y="592" width="88" height="22"/><rect x="1090" y="590" width="88" height="22"/><rect x="1178" y="588" width="88" height="22"/>
        <rect x="403" y="630" width="88" height="22"/><rect x="491" y="628" width="88" height="22"/><rect x="579" y="626" width="88" height="22"/><rect x="667" y="624" width="88" height="22"/><rect x="755" y="622" width="88" height="22"/><rect x="843" y="620" width="88" height="22"/><rect x="931" y="618" width="88" height="22"/><rect x="1019" y="616" width="88" height="22"/><rect x="1107" y="614" width="88" height="22"/><rect x="1195" y="612" width="73" height="22"/>
      </g>
      <g fill="#d6a38e" opacity="0.45">
        <path d="M540 520 L688 516 L694 538 L546 540 Z"/>
        <path d="M820 470 L965 466 L972 488 L828 490 Z"/>
        <path d="M646 654 L820 646 L828 670 L652 676 Z"/>
      </g>
      <g stroke="#7d3f2d" stroke-width="3" opacity="0.5">
        <path d="M430 450 L1260 424"/><path d="M398 474 L1242 448"/><path d="M365 498 L1225 472"/><path d="M383 522 L1207 496"/><path d="M400 546 L1189 520"/><path d="M368 570 L1171 544"/><path d="M386 594 L1154 568"/><path d="M403 618 L1138 592"/><path d="M420 642 L1122 616"/>
      </g>
    </g>

    <!-- Repair patches -->
    <g fill="#d8c6b0" opacity="0.95">
      <rect x="585" y="556" width="148" height="56" rx="10"/>
      <rect x="905" y="500" width="122" height="52" rx="10"/>
      <rect x="505" y="628" width="170" height="60" rx="10"/>
    </g>

    <!-- Cracks / mortar repairs -->
    <g stroke="#5f3027" stroke-width="4" opacity="0.7" fill="none">
      <path d="M618 442 C602 520, 674 612, 642 696"/>
      <path d="M950 430 C930 486, 996 566, 978 640"/>
      <path d="M1116 480 C1088 542, 1126 600, 1110 700"/>
    </g>
  </g>

  <!-- Vegetation -->
  <g opacity="0.95">
    <circle cx="330" cy="460" r="46" fill="#5b9b5f"/>
    <circle cx="360" cy="438" r="54" fill="#4f8d52"/>
    <circle cx="392" cy="463" r="44" fill="#65a665"/>
    <circle cx="1250" cy="420" r="50" fill="#5b9b5f"/>
    <circle cx="1288" cy="398" r="58" fill="#4f8d52"/>
    <circle cx="1325" cy="428" r="46" fill="#65a665"/>
  </g>

  <!-- Worksite details -->
  <g>
    <path d="M860 730 L940 700 L1015 724 L952 770 Z" fill="#c9362a"/>
    <circle cx="923" cy="783" r="21" fill="#202020"/>
    <circle cx="995" cy="791" r="21" fill="#202020"/>
    <path d="M878 760 L847 830" stroke="#4a3528" stroke-width="8"/>
    <path d="M952 758 L1001 825" stroke="#4a3528" stroke-width="8"/>
    <path d="M650 775 L682 842" stroke="#eb8d26" stroke-width="20"/>
    <path d="M712 778 L744 842" stroke="#eb8d26" stroke-width="20"/>
    <path d="M650 775 L682 842" stroke="#ffffff" stroke-width="4" opacity="0.8"/>
    <path d="M712 778 L744 842" stroke="#ffffff" stroke-width="4" opacity="0.8"/>
  </g>

  <!-- Sign -->
  <g filter="url(#softShadow)">
    <path d="M1065 560 L1316 545 L1300 665 L1070 680 Z" fill="#fff0c6" stroke="#7f6a4f" stroke-width="4"/>
    <text x="1100" y="602" font-family="Arial, Helvetica, sans-serif" font-size="44" font-weight="700" fill="#7c4932">BRYANT</text>
    <text x="1100" y="644" font-family="Arial, Helvetica, sans-serif" font-size="26" font-weight="700" fill="#7c4932">CONSTRUCTION</text>
  </g>

  <!-- Bottom edge / curb -->
  <path d="M0 870 C240 835, 560 818, 940 838 C1215 852, 1450 845, 1600 830 L1600 900 L0 900 Z" fill="#5e646e"/>
</svg>
